<?xml version="1.0" encoding="utf-8"?>
<!-- Generator: Adobe Illustrator 23.0.1, SVG Export Plug-In . SVG Version: 6.00 Build 0)  -->
<svg version="1.1" id="Layer_1" xmlns="http://www.w3.org/2000/svg" xmlns:xlink="http://www.w3.org/1999/xlink" x="0px" y="0px"
	 viewBox="0 0 1000 1000" style="enable-background:new 0 0 1000 1000;" xml:space="preserve">
<style type="text/css">
	.st0{fill:#6154A6;}
	.st1{fill:#FFC5C2;}
	.st2{fill:#8F779F;}
	.st3{fill:#C99399;}
	.st4{fill:#7C678A;}
	.st5{fill:#DCA0A7;}
	.st6{fill:#FFFFFF;}
</style>
<polygon class="st0" points="321.12,568.3 499.85,671.03 679.11,568.3 500.11,464.22 "/>
<polygon class="st1" points="577.39,626.59 399.62,522.65 424.81,508 602.77,612.05 "/>
<polygon class="st2" points="499.85,723.94 499.85,814.48 668.21,718.06 668.21,626.5 "/>
<polygon class="st3" points="597.05,758.81 597.05,667.74 571.45,682.54 571.45,773.48 "/>
<polygon class="st4" points="499.85,671.03 499.85,723.94 679.11,620.2 679.11,568.3 "/>
<polygon class="st5" points="577.39,626.59 577.39,679.11 602.77,664.43 602.77,612.05 "/>
<polygon class="st1" points="422.3,626.59 600.08,522.65 574.88,508 396.93,612.05 "/>
<polygon class="st2" points="499.85,723.94 499.85,814.48 331.48,718.06 331.48,626.5 "/>
<polygon class="st3" points="402.65,758.81 402.65,667.74 428.25,682.54 428.25,773.48 "/>
<polygon class="st4" points="499.85,671.03 499.85,723.94 320.59,620.2 320.59,568.3 "/>
<polygon class="st5" points="422.3,626.59 422.3,679.11 396.93,664.43 396.93,612.05 "/>
<path class="st5" d="M396.67,464.7c0,0-13.92,73.29,94.48,112.18c0,0-2.2-12.56-7.97-23.9c0,0-68.22-14.57-70.5-86
	C412.68,466.99,410.03,461.59,396.67,464.7z"/>
<path class="st1" d="M491.15,576.88l19.62-11.33c0,0-42.14-128.98-98.75-121.2c0,0-9.78,3.78-15.35,20.35c0,0,34.9-1.34,55.82,32.23
	C452.49,496.93,481.68,538.29,491.15,576.88z"/>
<path class="st5" d="M603.56,464.7c0,0,13.92,73.29-94.48,112.18c0,0,2.2-12.56,7.97-23.9c0,0,68.22-14.57,70.5-86
	C587.55,466.99,590.2,461.59,603.56,464.7z"/>
<path class="st1" d="M509.08,576.88l-19.62-11.33c0,0,42.14-128.98,98.75-121.2c0,0,9.78,3.78,15.35,20.35
	c0,0-34.9-1.34-55.82,32.23C547.74,496.93,518.55,538.29,509.08,576.88z"/>
<circle class="st1" cx="687.64" cy="428.38" r="6.02"/>
<rect x="709.45" y="452.57" transform="matrix(0.7071 0.7071 -0.7071 0.7071 532.9841 -372.1738)" class="st1" width="12.6" height="9.43"/>
<path class="st1" d="M683.29,496.71c7.18,0,13.05-5.87,13.05-13.05h-5.45c0,4.18-3.42,7.6-7.6,7.6V496.71z"/>
<path class="st1" d="M652.94,431.06c0-7.18-5.87-13.05-13.05-13.05v5.45c4.18,0,7.6,3.42,7.6,7.6H652.94z"/>
<circle class="st1" cx="297.56" cy="476.8" r="4.74"/>
<rect x="349.39" y="406.06" transform="matrix(-0.3481 0.9375 -0.9375 -0.3481 864.5788 220.2892)" class="st1" width="12.6" height="9.43"/>
<path class="st1" d="M336.84,449.84c-3.42,6.31-1.06,14.27,5.25,17.69l2.6-4.79c-3.68-1.99-5.05-6.63-3.06-10.31L336.84,449.84z"/>
<path class="st1" d="M287.63,423.53c4.42-5.66,3.41-13.9-2.25-18.32l-3.35,4.29c3.3,2.57,3.89,7.38,1.31,10.67L287.63,423.53z"/>
<rect x="300.75" y="509.07" transform="matrix(0.8819 -0.4715 0.4715 0.8819 -205.5812 204.527)" class="st1" width="9.27" height="6.94"/>
<rect x="711.97" y="528.17" transform="matrix(-0.0954 0.9954 -0.9954 -0.0954 1314.1307 -131.0028)" class="st1" width="9.24" height="6.92"/>
<path class="st1" d="M659.79,387c4.51,3.82,11.31,3.25,15.13-1.25l-3.42-2.9c-2.22,2.63-6.19,2.95-8.82,0.73L659.79,387z"/>
<circle class="st1" cx="636.75" cy="274.32" r="90.32"/>
<path class="st0" d="M273.06,298.55V249.4h11.73v49.15H273.06z"/>
<path class="st0" d="M314.6,298.71c-0.48,0-1.82,0.24-4.91,0.24c-9.04,0-12.05-4.04-12.05-13.16V273.1h-6.18l1.98-7.77h4.2v-7.06
	l10.23-2.14v9.2h7.77v7.77h-7.77v12.84c0,3.49,0.63,4.76,2.85,5.07c2.06,0.16,4.04,0,5.79-0.16L314.6,298.71z"/>
<path class="st0" d="M329.98,271.44l-7.29-1.98L328,249.4h12.29L329.98,271.44z"/>
<path class="st0" d="M362.72,275.08c-1.43-1.03-6.03-2.77-9.67-2.77c-1.74,0-3.41,0.63-3.41,2.22c0,4.6,16.65,2.7,16.65,13.87
	c0,6.5-5.71,10.7-13.56,10.7c-6.58,0-12.52-3.25-14.51-4.52c1.67-2.3,3.73-5.15,4.84-6.74c1.03,0.71,5.55,3.49,9.59,3.49
	c2.38,0,3.57-1.19,3.57-2.69c0-4.99-16.41-2.77-16.41-14.11c0-6.18,4.84-9.75,12.76-9.75c5.94,0,10.7,2.22,11.65,2.93L362.72,275.08
	z"/>
<path class="st0" d="M410.6,270.88l11.81-21.48h13l-18.95,30.92v18.23h-11.73v-17.92c-5.63-9.04-13.56-22.43-19.03-31.23h12.84
	L410.6,270.88z"/>
<path class="st0" d="M448.89,299.03c-9.91,0-17.84-6.18-17.84-17.04c0-10.94,7.93-17.2,17.84-17.2c9.91,0,17.76,6.26,17.76,17.28
	C466.65,292.84,458.8,299.03,448.89,299.03z M448.81,272.79c-4.12,0-7.61,3.41-7.61,9.2c0,5.87,3.49,9.04,7.61,9.04
	c4.28,0,7.69-3.17,7.69-8.96C456.5,276.19,453.09,272.79,448.81,272.79z"/>
<path class="st0" d="M484.17,265.33v18.15c0,4.84,1.27,7.45,5.23,7.45c4.04,0,6.26-3.73,6.26-9.99v-15.62h10.15v33.22h-10.15v-5.39
	c-0.79,1.35-3.65,5.95-9.83,5.95c-9.04,0-11.97-5.31-11.97-17.28v-16.49H484.17z"/>
<path class="st0" d="M524.92,287.93v10.62h-10.07v-33.22h10.07v5.47c1.51-4.52,6.66-6.5,11.02-6.03c-0.24,0.95-1.19,8.4-1.35,9.28
	C527.22,273.82,524.92,278.97,524.92,287.93z"/>
<path class="st6" d="M574.07,298.55h-13.56v-49.07h11.73c11.89,0,19.98,3.41,19.98,12.76c0,4.12-2.54,7.69-5.79,8.64
	c5.79,1.35,9.83,5.15,9.83,12.52C596.27,294.51,587.78,298.55,574.07,298.55z M572.25,257.88v9.83c7.29,0,9.27-1.59,9.27-4.84
	C581.52,259.15,579.06,257.88,572.25,257.88z M574.54,275.96h-2.3v13.71h2.3c8.01,0,9.99-2.46,10.15-6.66
	C584.69,279.13,582.55,275.96,574.54,275.96z"/>
<path class="st6" d="M602.69,282.54c0-9.67,5.79-17.68,15.78-17.68c4.28,0,7.93,1.74,7.93,1.74v-15.78l10.15-2.14
	c0,0,0,16.33,0,49.86h-10.07v-5.79c-0.87,1.82-3.65,6.34-9.75,6.34C608,299.1,602.69,292.45,602.69,282.54z M619.34,290.78
	c4.28,0,7.13-4.12,7.13-12.13v-4.04c-0.87-0.55-2.85-1.82-5.95-1.82c-4.99,0-7.61,4.44-7.61,9.59
	C612.91,287.05,614.82,290.78,619.34,290.78z"/>
<path class="st6" d="M661.75,264.78c9.59,0,15.14,4.84,16.33,5.87v27.9h-10.07v-5.87c-0.79,1.51-3.33,6.42-9.67,6.42
	c-8.8,0-14.19-6.66-14.19-16.57C644.15,272.47,650.41,264.78,661.75,264.78z M660.95,290.78c4.28,0,7.06-4.12,7.06-12.13v-4.36
	c-0.87-0.55-2.78-1.51-5.87-1.51c-5.15,0-7.69,4.44-7.69,9.59C654.45,287.05,656.28,290.78,660.95,290.78z"/>
<path class="st6" d="M686.96,309.25l9.43-17.28l-13.63-26.64h11.34l7.45,16.41l7.53-16.41h11.1L697.26,311L686.96,309.25z"/>
<path class="st1" d="M630.29,184H471.84l0,0c-5.13,0-9.29,4.16-9.29,9.29v0v47.72c0,5.13,4.16,9.29,9.29,9.29l0,0v-54.3
	c0-1.49,1.21-2.7,2.7-2.7h155.74V184z"/>
<path class="st1" d="M357.96,321.91h-84.48v-2.26c0-3.88,3.15-7.03,7.03-7.03h84.48v2.26C364.99,318.77,361.85,321.91,357.96,321.91
	z"/>
</svg>
