<svg width="584" height="197" viewBox="0 0 584 197" fill="none" xmlns="http://www.w3.org/2000/svg">
<path d="M21.58 123.57V89.58H32.04V123.57H21.58Z" fill="#6154A6"/>
<path d="M26.81 73.36C23.92 73.36 21.58 75.7 21.58 78.59V83.82H32.04V78.59C32.04 75.7 29.7 73.36 26.81 73.36Z" fill="#6154A6"/>
<path d="M63.51 123.73C63.02 123.73 59.7 123.97 56.53 123.97C47.28 123.97 44.2 119.83 44.2 110.5V97.52H37.87L39.9 89.57H44.2V82.35L54.66 80.16V89.57H62.61V97.52H54.66V110.66C54.66 114.23 55.31 115.53 57.58 115.85C59.69 116.01 61.72 115.85 63.5 115.69V123.73H63.51Z" fill="#6154A6"/>
<path d="M94.91 99.25C93.45 98.2 87.97 96.72 84.24 96.72C82.46 96.72 80.75 97.37 80.75 98.99C80.75 103.69 97.78 101.75 97.78 113.18C97.78 119.83 91.94 124.13 83.91 124.13C77.18 124.13 75.43 122.65 73.41 121.35C73.41 116.53 73.41 115.37 73.41 112.56C74.46 113.29 79.7 116.18 83.83 116.18C86.26 116.18 87.48 114.96 87.48 113.42C87.48 108.31 70.69 110.58 70.69 98.98C70.69 92.65 75.64 89 83.75 89C89.83 89 93.94 90.98 94.91 91.71V99.25V99.25Z" fill="#6154A6"/>
<path d="M139.3 136.44L149.09 116.84L135.14 89.59H144.31C145.79 89.59 147.13 90.46 147.74 91.8L154.36 106.38L162.07 89.59H173.43L149.99 136.31L141.06 136.45H139.3V136.44Z" fill="#6154A6"/>
<path d="M193.86 124.06C183.72 124.06 175.61 117.73 175.61 106.62C175.61 95.43 183.72 89.02 193.86 89.02C204 89.02 212.03 95.43 212.03 106.7C212.03 117.73 204 124.06 193.86 124.06ZM193.78 97.21C189.56 97.21 185.99 100.7 185.99 106.62C185.99 112.62 189.56 115.87 193.78 115.87C198.16 115.87 201.65 112.63 201.65 106.7C201.65 100.7 198.16 97.21 193.78 97.21Z" fill="#6154A6"/>
<path d="M229.96 89.58V108.15C229.96 113.1 231.26 115.78 235.31 115.78C239.45 115.78 241.72 111.97 241.72 105.56V92.41L252.1 89.58V123.57H241.72V120.46C240.91 121.84 237.99 124.14 231.66 124.14C222.41 124.14 219.41 118.71 219.41 106.46V92.42L229.96 89.58Z" fill="#6154A6"/>
<path d="M271.65 112.7V123.57H261.35V93.5101L271.65 89.58V95.18C273.19 90.56 279.21 88.5801 283.67 89.0701C283.67 90.8301 283.67 98.2501 283.67 99.7301C276.13 99.4801 271.65 103.54 271.65 112.7Z" fill="#6154A6"/>
<path d="M382.6 189.64C432.482 189.64 472.92 149.202 472.92 99.32C472.92 49.4376 432.482 9 382.6 9C332.718 9 292.28 49.4376 292.28 99.32C292.28 149.202 332.718 189.64 382.6 189.64Z" fill="#FFC5C2"/>
<path d="M323.72 123.56C313.74 123.56 309.98 123.61 306.85 123.57V72.55H317.15V92.62C317.88 90.92 320.39 89.0101 327.29 89.0101C335.89 89.0101 341.48 96.47 341.48 106.53C341.49 116.35 335.32 123.56 323.72 123.56ZM324.37 97.2901C316.89 97.2901 317.15 101.83 317.15 109.13V114.32C318.04 114.89 319.99 115.78 323.31 115.78C328.34 115.78 330.94 111.32 330.94 106.29C330.94 101.1 329 97.2901 324.37 97.2901Z" fill="white"/>
<path d="M347.81 107.19C347.81 97.29 353.73 89.1001 363.95 89.1001C368.33 89.1001 372.06 90.8801 372.06 90.8801V74.7401L382.44 72.55C382.44 72.55 382.44 89.2601 382.44 123.57H372.14V120.05C371.25 121.92 368.41 124.13 362.16 124.13C353.25 124.14 347.81 117.33 347.81 107.19ZM364.85 115.62C372.15 115.62 372.15 111.4 372.15 103.21V99.0701C371.26 98.5001 369.23 97.2001 366.07 97.2001C360.96 97.2001 358.28 101.74 358.28 107.02C358.28 111.81 360.22 115.62 364.85 115.62Z" fill="white"/>
<path d="M408.24 89.02C418.66 89.13 419.76 89.23 424.95 89.23V123.58H414.65V119.98C413.84 121.52 411.24 124.14 404.75 124.14C395.75 124.14 390.23 117.33 390.23 107.19C390.23 96.88 396.64 88.89 408.24 89.02ZM407.43 115.62C411.81 115.62 414.65 111.4 414.65 103.21V98.75C413.76 98.18 411.81 97.21 408.65 97.21C403.38 97.21 400.78 101.75 400.78 107.03C400.78 111.81 402.65 115.62 407.43 115.62Z" fill="white"/>
<path d="M433.06 136.31L443.69 116.84L429.74 89.59H441.34L448.97 106.38L456.68 89.59H468.04L444.6 136.31H433.06V136.31Z" fill="white"/>
<path d="M501.47 106.17C501.47 94.76 509.18 88.74 519.46 88.74C525.89 88.74 530.06 90.91 530.3 91.07L530.13 99.14C530.13 99.14 525.72 96.77 520.74 96.77C516 96.77 511.58 99.66 511.58 106.01C511.58 112.36 515.92 115.33 520.58 115.33C525.16 115.33 529.86 112.07 530.03 111.91L532.55 119.67C528.29 122.56 523.88 123.69 519.54 123.69C508.94 123.68 501.47 117.49 501.47 106.17Z" fill="#6154A6"/>
<path d="M553.28 123.52C543.24 123.52 535.21 117.25 535.21 106.25C535.21 95.1701 543.24 88.8201 553.28 88.8201C563.32 88.8201 571.27 95.17 571.27 106.33C571.27 117.25 563.32 123.52 553.28 123.52ZM553.2 96.9301C549.02 96.9301 545.49 100.38 545.49 106.25C545.49 112.19 549.02 115.41 553.2 115.41C557.54 115.41 560.99 112.2 560.99 106.33C560.99 100.38 557.54 96.9301 553.2 96.9301Z" fill="#6154A6"/>
<path d="M376.14 9H217.7C212.57 9 208.41 13.16 208.41 18.29V66.01C208.41 71.14 212.57 75.3 217.7 75.3V21C217.7 19.51 218.91 18.3 220.4 18.3H376.14V9Z" fill="#FFC5C2"/>
<path d="M97.48 146.91H13V144.65C13 140.77 16.15 137.62 20.03 137.62H104.51V139.88C104.51 143.77 101.36 146.91 97.48 146.91Z" fill="#FFC5C2"/>
<path d="M486.18 123.59C489.057 123.59 491.39 121.257 491.39 118.38C491.39 115.503 489.057 113.17 486.18 113.17C483.303 113.17 480.97 115.503 480.97 118.38C480.97 121.257 483.303 123.59 486.18 123.59Z" fill="#FFC5C2"/>
</svg>
